<svg xmlns="http://www.w3.org/2000/svg" viewBox="0 0 512 512" width="512" height="512">
  <defs>
    <radialGradient id="bgGrad" cx="50%" cy="30%" r="70%">
      <stop offset="0%" stop-color="#1e293b"/>
      <stop offset="100%" stop-color="#07090e"/>
    </radialGradient>
    <linearGradient id="shieldGrad" x1="0%" y1="0%" x2="100%" y2="100%">
      <stop offset="0%" stop-color="#ff4b68"/>
      <stop offset="50%" stop-color="#ff2a4b"/>
      <stop offset="100%" stop-color="#8b0018"/>
    </linearGradient>
    <filter id="glow" x="-20%" y="-20%" width="140%" height="140%">
      <feDropShadow dx="0" dy="8" stdDeviation="16" flood-color="#ff2a4b" flood-opacity="0.6"/>
    </filter>
  </defs>
  <rect width="512" height="512" rx="112" fill="url(#bgGrad)"/>
  <rect x="16" y="16" width="480" height="480" rx="96" fill="none" stroke="#00e5ff" stroke-width="4" stroke-opacity="0.4"/>
  <path d="M 256 80 L 386 138 C 386 280 333 378 256 426 C 179 378 126 280 126 138 Z" fill="url(#shieldGrad)" filter="url(#glow)"/>
  <path d="M 256 170 C 224 128 160 149 160 202 C 160 261 256 325 256 325 C 256 325 352 261 352 202 C 352 149 288 128 256 170 Z" fill="#ffffff"/>
  <path d="M 192 234 L 224 234 L 237 197 L 253 272 L 272 218 L 285 234 L 320 234" fill="none" stroke="#ff2a4b" stroke-width="8" stroke-linecap="round" stroke-linejoin="round"/>
</svg>
